<?xml version="1.0" encoding="utf-8"?>
<!-- Generator: Adobe Illustrator 21.0.0, SVG Export Plug-In . SVG Version: 6.00 Build 0)  -->
<svg version="1.1" id="Слой_1" xmlns="http://www.w3.org/2000/svg" xmlns:xlink="http://www.w3.org/1999/xlink" x="0px" y="0px"
	 viewBox="0 0 16 25" style="enable-background:new 0 0 16 25;" xml:space="preserve">
<style type="text/css">
	.st0{display:none;fill:#00E215;}
	.st1{fill:#FFCF4D;}
</style>
<polygon class="st0" points="16,0 16,3.9 14.1,1.5 "/>
<polygon class="st0" points="16,21.1 16,25 14.1,23.5 "/>
<polygon class="st1" points="13.3,5.1 5,12.5 13.3,19.9 16,22.3 16,22.3 14.1,25 11.4,22.6 0,12.5 11.4,2.4 14.1,0 16,2.7 16,2.8 
	"/>
<polygon class="st0" points="16.1,21 16,21.1 16,21.1 14.1,23.5 14,23.6 13.8,23.5 11.4,21.6 11.3,21.5 11.4,21.4 13.3,19 
	13.4,18.8 13.5,18.9 15.9,20.8 "/>
</svg>
